<mxfile host="app.diagrams.net" agent="Mozilla/5.0 (Windows NT 10.0; Win64; x64) AppleWebKit/537.36 (KHTML, like Gecko) Chrome/141.0.0.0 Safari/537.36 Edg/141.0.0.0" version="28.2.8">
  <diagram name="第 1 页" id="RMv4zKhDBExGWnuNaBz6">
    <mxGraphModel dx="1418" dy="756" grid="1" gridSize="10" guides="1" tooltips="1" connect="1" arrows="1" fold="1" page="1" pageScale="1" pageWidth="827" pageHeight="1169" math="0" shadow="0">
      <root>
        <mxCell id="0" />
        <mxCell id="1" parent="0" />
        <mxCell id="U6IxgXajKBevIjRXycDC-1" value="" style="rounded=0;whiteSpace=wrap;html=1;" parent="1" vertex="1">
          <mxGeometry x="50" y="60" width="260" height="140" as="geometry" />
        </mxCell>
        <mxCell id="U6IxgXajKBevIjRXycDC-3" value="" style="rounded=0;whiteSpace=wrap;html=1;" parent="1" vertex="1">
          <mxGeometry x="50" y="410" width="260" height="140" as="geometry" />
        </mxCell>
        <mxCell id="U6IxgXajKBevIjRXycDC-4" value="" style="rounded=0;whiteSpace=wrap;html=1;" parent="1" vertex="1">
          <mxGeometry x="50" y="240" width="260" height="140" as="geometry" />
        </mxCell>
        <mxCell id="U6IxgXajKBevIjRXycDC-5" value="tag1" style="rounded=0;whiteSpace=wrap;html=1;" parent="1" vertex="1">
          <mxGeometry x="60" y="65" width="120" height="30" as="geometry" />
        </mxCell>
        <mxCell id="U6IxgXajKBevIjRXycDC-9" value="tag3" style="rounded=0;whiteSpace=wrap;html=1;" parent="1" vertex="1">
          <mxGeometry x="60" y="165" width="120" height="30" as="geometry" />
        </mxCell>
        <mxCell id="U6IxgXajKBevIjRXycDC-10" value="tag2" style="rounded=0;whiteSpace=wrap;html=1;" parent="1" vertex="1">
          <mxGeometry x="60" y="115" width="120" height="30" as="geometry" />
        </mxCell>
        <mxCell id="U6IxgXajKBevIjRXycDC-11" value="tag1" style="rounded=0;whiteSpace=wrap;html=1;" parent="1" vertex="1">
          <mxGeometry x="60" y="245" width="120" height="30" as="geometry" />
        </mxCell>
        <mxCell id="U6IxgXajKBevIjRXycDC-12" value="tag3" style="rounded=0;whiteSpace=wrap;html=1;" parent="1" vertex="1">
          <mxGeometry x="60" y="345" width="120" height="30" as="geometry" />
        </mxCell>
        <mxCell id="U6IxgXajKBevIjRXycDC-13" value="tag2" style="rounded=0;whiteSpace=wrap;html=1;" parent="1" vertex="1">
          <mxGeometry x="60" y="295" width="120" height="30" as="geometry" />
        </mxCell>
        <mxCell id="U6IxgXajKBevIjRXycDC-14" value="tag1" style="rounded=0;whiteSpace=wrap;html=1;" parent="1" vertex="1">
          <mxGeometry x="60" y="415" width="120" height="30" as="geometry" />
        </mxCell>
        <mxCell id="U6IxgXajKBevIjRXycDC-15" value="tag3" style="rounded=0;whiteSpace=wrap;html=1;" parent="1" vertex="1">
          <mxGeometry x="60" y="515" width="120" height="30" as="geometry" />
        </mxCell>
        <mxCell id="U6IxgXajKBevIjRXycDC-16" value="tag2" style="rounded=0;whiteSpace=wrap;html=1;" parent="1" vertex="1">
          <mxGeometry x="60" y="465" width="120" height="30" as="geometry" />
        </mxCell>
      </root>
    </mxGraphModel>
  </diagram>
</mxfile>
